<svg width="13" height="13" viewBox="0 0 13 13" fill="none" xmlns="http://www.w3.org/2000/svg">
<path fill-rule="evenodd" clip-rule="evenodd" d="M3.1925 1.87501C2.741 1.87501 2.375 2.24101 2.375 2.69251V6.12501H11.5C11.5995 6.12501 11.6948 6.16452 11.7652 6.23484C11.8355 6.30517 11.875 6.40055 11.875 6.50001C11.875 6.59946 11.8355 6.69485 11.7652 6.76517C11.6948 6.8355 11.5995 6.87501 11.5 6.87501H11.366C11.3693 6.89734 11.3717 6.92001 11.373 6.94301C11.3747 6.97234 11.3753 7.00234 11.375 7.03301V7.05251C11.375 7.24001 11.375 7.35001 11.367 7.47251C11.296 8.59051 10.692 9.62351 9.8165 10.2985L9.8355 10.3325L10.3355 11.3325C10.358 11.3766 10.3714 11.4247 10.3752 11.4741C10.379 11.5234 10.3729 11.573 10.3574 11.62C10.342 11.667 10.3173 11.7105 10.2849 11.7479C10.2526 11.7854 10.2131 11.816 10.1688 11.8381C10.1245 11.8602 10.0763 11.8734 10.0269 11.8767C9.97756 11.8801 9.928 11.8737 9.88112 11.8578C9.83424 11.842 9.79097 11.817 9.75379 11.7843C9.71661 11.7517 9.68626 11.712 9.6645 11.6675L9.1805 10.7C8.68027 10.9556 8.12817 11.0933 7.5665 11.1025H7.563C7.193 11.1165 6.831 11.125 6.5 11.125C6.169 11.125 5.807 11.1165 5.437 11.1025H5.4335C4.87183 11.0933 4.31973 10.9556 3.8195 10.7L3.3355 11.6675C3.31374 11.712 3.28339 11.7517 3.24621 11.7843C3.20904 11.817 3.16576 11.842 3.11888 11.8578C3.072 11.8737 3.02244 11.8801 2.97306 11.8767C2.92369 11.8734 2.87547 11.8602 2.83119 11.8381C2.78691 11.816 2.74745 11.7854 2.71507 11.7479C2.6827 11.7105 2.65805 11.667 2.64255 11.62C2.62706 11.573 2.62102 11.5234 2.62479 11.4741C2.62855 11.4247 2.64205 11.3766 2.6645 11.3325L3.1645 10.3325L3.1835 10.2985C2.308 9.62351 1.7035 8.59051 1.633 7.47251C1.62581 7.33263 1.62314 7.19256 1.625 7.05251V6.87501H1.5C1.40054 6.87501 1.30516 6.8355 1.23483 6.76517C1.16451 6.69485 1.125 6.59946 1.125 6.50001C1.125 6.40055 1.16451 6.30517 1.23483 6.23484C1.30516 6.16452 1.40054 6.12501 1.5 6.12501H1.625V2.69251C1.62497 2.32818 1.75185 1.97522 1.98383 1.6943C2.21581 1.41337 2.5384 1.22202 2.89616 1.15315C3.25392 1.08427 3.62449 1.14216 3.9442 1.31688C4.2639 1.49159 4.51276 1.77221 4.648 2.11051L4.703 2.24801C5.11334 2.14314 5.54684 2.17689 5.936 2.34401C6.1783 2.44835 6.39737 2.59995 6.5804 2.78994C6.76343 2.97992 6.90676 3.20449 7.002 3.45051C7.0376 3.54109 7.03659 3.64197 6.99917 3.73182C6.96176 3.82168 6.89087 3.89346 6.8015 3.93201L3.8215 5.21501C3.77538 5.23493 3.72572 5.24539 3.67547 5.24575C3.62523 5.24611 3.57543 5.23637 3.52902 5.21711C3.48262 5.19784 3.44056 5.16945 3.40534 5.13362C3.37012 5.09779 3.34246 5.05524 3.324 5.00851C3.1276 4.50863 3.13118 3.95232 3.334 3.45501C3.47675 3.1009 3.71555 2.7937 4.0235 2.56801L3.9515 2.38901C3.89084 2.23729 3.78611 2.10724 3.65082 2.01562C3.51553 1.924 3.35589 1.87502 3.1925 1.87501ZM2.5415 6.87501H2.4915C2.45984 6.87717 2.43019 6.89128 2.40856 6.91449C2.38692 6.93771 2.37493 6.96828 2.375 7.00001V7.04151C2.375 7.24251 2.375 7.32851 2.3815 7.42501C2.474 8.88601 3.729 10.189 5.185 10.3365C5.2825 10.3465 5.3365 10.348 5.465 10.353C5.829 10.3665 6.1815 10.375 6.5 10.375C6.8185 10.375 7.171 10.3665 7.535 10.353C7.6635 10.348 7.7175 10.346 7.815 10.336C9.271 10.189 10.526 8.88601 10.619 7.42501C10.625 7.32851 10.625 7.24251 10.625 7.04151V6.99201C10.625 6.99101 10.625 6.99101 10.625 6.99201C10.623 6.96169 10.61 6.93313 10.5885 6.91169C10.5669 6.89025 10.5383 6.87739 10.508 6.87551C10.5087 6.87551 10.5087 6.87551 10.508 6.87551H10.5L10.459 6.87501H2.5415ZM5.6415 3.03401C5.48469 2.96673 5.31516 2.93426 5.14459 2.93883C4.97402 2.94341 4.80647 2.98492 4.6535 3.06051C4.36864 3.20116 4.14598 3.44234 4.0285 3.73751C3.94968 3.9317 3.91716 4.14157 3.9335 4.35051L6.1235 3.40751C5.99753 3.24351 5.83133 3.11486 5.641 3.03401" fill="#767676"/>
</svg>
