<svg width="13" height="13" viewBox="0 0 13 13" fill="none" xmlns="http://www.w3.org/2000/svg">
<path d="M2.21429 0.5C1.50929 0.5 0.928571 1.27429 0.928571 2.21429V6.08857C0.667143 6.404 0.5 6.85543 0.5 7.35714V12.5H2.64286V11.3571H10.3571V12.5H12.5V7.35714C12.5 6.85543 12.3329 6.404 12.0714 6.08857V2.21429C12.0714 1.27429 11.4907 0.5 10.7857 0.5H2.21429ZM2.21429 1.64286H10.7857C11.0236 1.64286 11.2143 1.89714 11.2143 2.21429V5.64286H10.3571V5.07143C10.3571 4.13143 9.77643 3.35714 9.07143 3.35714H7.35714C7.02843 3.35714 6.72843 3.52857 6.5 3.80286C6.2653 3.51841 5.96002 3.35966 5.64286 3.35714H3.92857C3.22357 3.35714 2.64286 4.13143 2.64286 5.07143V5.64286H1.78571V2.21429C1.78571 1.89714 1.97643 1.64286 2.21429 1.64286ZM3.92857 4.5H5.64286C5.88071 4.5 6.07143 4.75429 6.07143 5.07143V5.64286H3.5V5.07143C3.5 4.75429 3.69071 4.5 3.92857 4.5ZM7.35714 4.5H9.07143C9.30929 4.5 9.5 4.75429 9.5 5.07143V5.64286H6.92857V5.07143C6.92857 4.75429 7.11929 4.5 7.35714 4.5ZM1.78571 6.78571H11.2143C11.4521 6.78571 11.6429 7.04 11.6429 7.35714V11.3571H11.2143V10.2143H1.78571V11.3571H1.35714V7.35714C1.35714 7.04 1.54786 6.78571 1.78571 6.78571Z" fill="#767676"/>
</svg>
