<svg width="13" height="13" viewBox="0 0 13 13" fill="none" xmlns="http://www.w3.org/2000/svg">
<path d="M4.5 1.5V3" stroke="#767676" stroke-width="0.7" stroke-miterlimit="10" stroke-linecap="round" stroke-linejoin="round"/>
<path d="M8.5 1.5V3" stroke="#767676" stroke-width="0.7" stroke-miterlimit="10" stroke-linecap="round" stroke-linejoin="round"/>
<path d="M2.25 5.04504H10.75" stroke="#767676" stroke-width="0.7" stroke-miterlimit="10" stroke-linecap="round" stroke-linejoin="round"/>
<path d="M9.5 12C10.6046 12 11.5 11.1046 11.5 10C11.5 8.89543 10.6046 8 9.5 8C8.39543 8 7.5 8.89543 7.5 10C7.5 11.1046 8.39543 12 9.5 12Z" stroke="#767676" stroke-width="0.7" stroke-miterlimit="10" stroke-linecap="round" stroke-linejoin="round"/>
<path d="M10.0351 10.555L8.9751 9.5" stroke="#767676" stroke-width="0.7" stroke-miterlimit="10" stroke-linecap="round" stroke-linejoin="round"/>
<path d="M10.0251 9.51001L8.96509 10.57" stroke="#767676" stroke-width="0.7" stroke-miterlimit="10" stroke-linecap="round" stroke-linejoin="round"/>
<path d="M11 4.75V8.67999C10.635 8.26499 10.1 8 9.5 8C8.395 8 7.5 8.895 7.5 10C7.5 10.375 7.605 10.73 7.79 11.03C7.895 11.21 8.03 11.37 8.185 11.5H4.5C2.75 11.5 2 10.5 2 9V4.75C2 3.25 2.75 2.25 4.5 2.25H8.5C10.25 2.25 11 3.25 11 4.75Z" stroke="#767676" stroke-width="0.7" stroke-miterlimit="10" stroke-linecap="round" stroke-linejoin="round"/>
<path d="M6.49774 7.34998H6.50223" stroke="#767676" stroke-width="0.7" stroke-linecap="round" stroke-linejoin="round"/>
<path d="M4.64716 7.34998H4.65165" stroke="#767676" stroke-width="0.7" stroke-linecap="round" stroke-linejoin="round"/>
<path d="M4.64716 8.84998H4.65165" stroke="#767676" stroke-width="0.7" stroke-linecap="round" stroke-linejoin="round"/>
</svg>
