<svg width="13" height="13" viewBox="0 0 13 13" fill="none" xmlns="http://www.w3.org/2000/svg">
<path d="M1.64502 4.38999V9.25499C1.64502 10.205 2.32002 10.595 3.14002 10.125L4.31502 9.45499C4.57002 9.30999 4.99502 9.29499 5.26002 9.42999L7.88502 10.745C8.15002 10.875 8.57502 10.865 8.83002 10.72L10.995 9.47999C11.27 9.31999 11.5 8.92999 11.5 8.60999V3.74499C11.5 2.79499 10.825 2.40499 10.005 2.87499L8.83002 3.54499C8.57502 3.68999 8.15002 3.70499 7.88502 3.56999L5.26002 2.25999C4.99502 2.12999 4.57002 2.13999 4.31502 2.28499L2.15002 3.52499C1.87002 3.68499 1.64502 4.07499 1.64502 4.38999Z" stroke="#767676" stroke-width="0.7" stroke-linecap="round" stroke-linejoin="round"/>
<path d="M4.78003 2.5V9" stroke="#767676" stroke-width="0.7" stroke-linecap="round" stroke-linejoin="round"/>
<path d="M8.36499 3.81006V10.5001" stroke="#767676" stroke-width="0.7" stroke-linecap="round" stroke-linejoin="round"/>
</svg>
