<svg width="24" height="25" viewBox="0 0 24 25" fill="none" xmlns="http://www.w3.org/2000/svg">
<path fill-rule="evenodd" clip-rule="evenodd" d="M5.385 3.25C4.482 3.25 3.75 3.982 3.75 4.885V11.75H22C22.1989 11.75 22.3897 11.829 22.5303 11.9697C22.671 12.1103 22.75 12.3011 22.75 12.5C22.75 12.6989 22.671 12.8897 22.5303 13.0303C22.3897 13.171 22.1989 13.25 22 13.25H21.732C21.7387 13.2947 21.7433 13.34 21.746 13.386C21.7493 13.4447 21.7507 13.5047 21.75 13.566V13.605C21.75 13.98 21.75 14.2 21.734 14.445C21.592 16.681 20.384 18.747 18.633 20.097L18.671 20.165L19.671 22.165C19.7159 22.2532 19.7429 22.3494 19.7504 22.4481C19.758 22.5468 19.7459 22.646 19.7149 22.74C19.6839 22.8341 19.6346 22.921 19.5699 22.9959C19.5051 23.0707 19.4262 23.132 19.3376 23.1762C19.2491 23.2205 19.1526 23.2467 19.0539 23.2535C18.9551 23.2602 18.856 23.2474 18.7622 23.2157C18.6685 23.1839 18.5819 23.134 18.5076 23.0686C18.4332 23.0033 18.3725 22.9239 18.329 22.835L17.361 20.9C16.3605 21.4112 15.2563 21.6866 14.133 21.705H14.126C13.386 21.733 12.662 21.75 12 21.75C11.338 21.75 10.614 21.733 9.874 21.705H9.867C8.74366 21.6866 7.63946 21.4112 6.639 20.9L5.671 22.835C5.62748 22.9239 5.56679 23.0033 5.49243 23.0686C5.41807 23.134 5.33152 23.1839 5.23775 23.2157C5.14399 23.2474 5.04488 23.2602 4.94613 23.2535C4.84738 23.2467 4.75094 23.2205 4.66239 23.1762C4.57383 23.132 4.4949 23.0707 4.43014 22.9959C4.36539 22.921 4.3161 22.8341 4.28511 22.74C4.25411 22.646 4.24204 22.5468 4.24957 22.4481C4.2571 22.3494 4.2841 22.2532 4.329 22.165L5.329 20.165L5.367 20.097C3.616 18.747 2.407 16.681 2.266 14.445C2.25162 14.1652 2.24628 13.8851 2.25 13.605V13.25H2C1.80109 13.25 1.61032 13.171 1.46967 13.0303C1.32902 12.8897 1.25 12.6989 1.25 12.5C1.25 12.3011 1.32902 12.1103 1.46967 11.9697C1.61032 11.829 1.80109 11.75 2 11.75H2.25V4.885C2.24994 4.15635 2.5037 3.45043 2.96766 2.88858C3.43162 2.32672 4.07681 1.94403 4.79232 1.80628C5.50784 1.66853 6.24899 1.78431 6.88839 2.13374C7.5278 2.48317 8.02552 3.04441 8.296 3.721L8.406 3.996C9.22668 3.78626 10.0937 3.85377 10.872 4.188C11.3566 4.39669 11.7947 4.69988 12.1608 5.07986C12.5269 5.45983 12.8135 5.90896 13.004 6.401C13.0752 6.58217 13.0732 6.78393 12.9983 6.96363C12.9235 7.14334 12.7817 7.28691 12.603 7.364L6.643 9.93C6.55075 9.96985 6.45143 9.99076 6.35095 9.99148C6.25046 9.9922 6.15086 9.97272 6.05804 9.9342C5.96523 9.89567 5.88111 9.83889 5.81067 9.76722C5.74023 9.69556 5.68491 9.61046 5.648 9.517C5.25521 8.51723 5.26237 7.40463 5.668 6.41C5.9535 5.70179 6.43111 5.08738 7.047 4.636L6.903 4.278C6.78168 3.97457 6.57222 3.71446 6.30164 3.53122C6.03106 3.34798 5.71178 3.25003 5.385 3.25ZM4.083 13.25H3.983C3.91969 13.2543 3.86038 13.2825 3.81711 13.329C3.77385 13.3754 3.74985 13.4365 3.75 13.5V13.583C3.75 13.985 3.75 14.157 3.763 14.35C3.948 17.272 6.458 19.878 9.37 20.173C9.565 20.193 9.673 20.196 9.93 20.206C10.658 20.233 11.363 20.25 12 20.25C12.637 20.25 13.342 20.233 14.07 20.206C14.327 20.196 14.435 20.192 14.63 20.172C17.542 19.878 20.052 17.272 20.238 14.35C20.25 14.157 20.25 13.985 20.25 13.583V13.484C20.25 13.482 20.25 13.482 20.25 13.484C20.246 13.4234 20.22 13.3663 20.1769 13.3234C20.1339 13.2805 20.0767 13.2548 20.016 13.251C20.0173 13.251 20.0173 13.251 20.016 13.251H20L19.918 13.25H4.083ZM10.283 5.568C9.96939 5.43344 9.63032 5.3685 9.28918 5.37765C8.94805 5.3868 8.61295 5.46982 8.307 5.621C7.73729 5.9023 7.29197 6.38467 7.057 6.975C6.89936 7.36338 6.83431 7.78313 6.867 8.201L11.247 6.315C10.9951 5.98701 10.6627 5.7297 10.282 5.568" fill="#94CEEE"/>
</svg>
