<svg width="24" height="25" viewBox="0 0 24 25" fill="none" xmlns="http://www.w3.org/2000/svg">
<path d="M3.42857 0.5C2.01857 0.5 0.857143 2.04857 0.857143 3.92857V11.6771C0.334286 12.308 0 13.2109 0 14.2143V24.5H4.28571V22.2143H19.7143V24.5H24V14.2143C24 13.2109 23.6657 12.308 23.1429 11.6771V3.92857C23.1429 2.04857 21.9814 0.5 20.5714 0.5H3.42857ZM3.42857 2.78571H20.5714C21.0471 2.78571 21.4286 3.29429 21.4286 3.92857V10.7857H19.7143V9.64286C19.7143 7.76286 18.5529 6.21429 17.1429 6.21429H13.7143C13.0569 6.21429 12.4569 6.55714 12 7.10571C11.5306 6.53681 10.92 6.21933 10.2857 6.21429H6.85714C5.44714 6.21429 4.28571 7.76286 4.28571 9.64286V10.7857H2.57143V3.92857C2.57143 3.29429 2.95286 2.78571 3.42857 2.78571ZM6.85714 8.5H10.2857C10.7614 8.5 11.1429 9.00857 11.1429 9.64286V10.7857H6V9.64286C6 9.00857 6.38143 8.5 6.85714 8.5ZM13.7143 8.5H17.1429C17.6186 8.5 18 9.00857 18 9.64286V10.7857H12.8571V9.64286C12.8571 9.00857 13.2386 8.5 13.7143 8.5ZM2.57143 13.0714H21.4286C21.9043 13.0714 22.2857 13.58 22.2857 14.2143V22.2143H21.4286V19.9286H2.57143V22.2143H1.71429V14.2143C1.71429 13.58 2.09571 13.0714 2.57143 13.0714Z" fill="#94CEEE"/>
</svg>
