<svg width="24" height="25" viewBox="0 0 24 25" fill="none" xmlns="http://www.w3.org/2000/svg">
<path d="M15 7.57C15 6.9 14.67 6.28 14.11 5.91L10.11 3.24C9.44 2.79 8.56 2.79 7.89 3.24L3.89 5.91C3.34 6.28 3 6.9 3 7.57V13.25C3 13.53 3.22 13.75 3.5 13.75H14.5C14.78 13.75 15 13.53 15 13.25V7.57ZM9 11.25C8.04 11.25 7.25 10.46 7.25 9.5C7.25 8.54 8.04 7.75 9 7.75C9.96 7.75 10.75 8.54 10.75 9.5C10.75 10.46 9.96 11.25 9 11.25Z" fill="#94CEEE"/>
<path d="M22 21.75H20.73V18.75C21.68 18.44 22.37 17.55 22.37 16.5V14.5C22.37 13.19 21.3 12.12 19.99 12.12C18.68 12.12 17.61 13.19 17.61 14.5V16.5C17.61 17.54 18.29 18.42 19.22 18.74V21.75H15V15.75C15 15.47 14.78 15.25 14.5 15.25H3.5C3.22 15.25 3 15.47 3 15.75V21.75H2C1.59 21.75 1.25 22.09 1.25 22.5C1.25 22.91 1.59 23.25 2 23.25H19.93C19.95 23.25 19.96 23.26 19.98 23.26C20 23.26 20.01 23.25 20.03 23.25H22C22.41 23.25 22.75 22.91 22.75 22.5C22.75 22.09 22.41 21.75 22 21.75ZM8.25 18.75C8.25 18.34 8.59 18 9 18C9.41 18 9.75 18.34 9.75 18.75V21.75H8.25V18.75Z" fill="#94CEEE"/>
</svg>
