<svg width="70" height="68" viewBox="0 0 70 68" fill="none" xmlns="http://www.w3.org/2000/svg">
<g clip-path="url(#clip0_10_149)">
<path d="M53.053 39.1307C53.053 42.5226 44.7668 45.2613 34.5265 45.2613C24.2862 45.2613 16 42.5226 16 39.1307C16 35.7387 24.2862 33 34.5265 33C44.7668 33 53.053 35.7387 53.053 39.1307Z" fill="#8ABAD5"/>
<mask id="path-2-inside-1_10_149" fill="white">
<path d="M51.1643 18.3668L51.0654 18.191C50.0018 18.8442 48.9629 19.5729 47.9488 20.4271C45.7226 22.3116 43.8675 24.5477 42.4329 26.9849C45.1042 21.5578 48.3693 17.3367 52.0053 14.8241C49.4576 13.5427 46.9594 11.3568 44.659 8.24121L44.5353 8.09045C43.917 9.44724 43.3481 10.9296 42.8286 12.5126C40.924 18.3417 39.9346 24.8744 39.811 31.3317C39.9594 20.3518 41.3198 11.0804 43.8428 4.97487C41.6661 4.54774 39.341 2.96482 36.8922 0.150754L36.8428 0.0753769L36.7438 0C36.7438 0.0502513 36.7438 0.100503 36.7438 0.175879L36.6696 0.251256C33.8251 3.96985 31.0548 6.13065 28.3834 6.83417C31.9452 14.196 34.2951 25.603 35.2845 39.2211C34.6661 31.206 32.9594 23.191 30.1643 16.1055C29.4223 14.1709 28.606 12.3869 27.7403 10.7538L27.6166 10.9548C24.97 15.0251 22.0512 17.9397 18.9594 19.7487C23.659 22.5628 28.0124 27.5377 31.7226 34.0452C29.7686 31.1307 27.3445 28.5176 24.4011 26.3568C23.1148 25.402 21.7544 24.5729 20.3693 23.8442L20.2456 24.0452C17.5 28.3166 14.2102 31.9096 10.5 34.799C19.3799 34.1709 28.1113 36.6332 35.4576 41.5578C36.5954 33.995 37.288 26.1055 37.4611 18.3166C38.0053 23.3417 38.7721 28.392 39.811 33.2161C45.4753 28.8693 52.3516 26.407 59.5247 26.4322C56.3834 24.3216 53.5636 21.6332 51.1643 18.3668ZM46.2915 18.5678L45.03 17.9397L45.9452 16.608L47.2315 17.2613L46.2915 18.5678ZM48.6908 15.2261L47.6519 16.6583L46.3657 15.9548L47.3799 14.4975L48.6908 15.2261ZM45.3516 13.2915L46.811 14.0955L45.7721 15.6784L44.3375 14.9246L45.3516 13.2915ZM43.9664 15.5276L45.4011 16.2563L44.4364 17.6884L43.0512 17.0101L43.9664 15.5276ZM27.023 17.5377L28.0371 19.1709L26.6025 19.9246L25.5636 18.3417L27.023 17.5377ZM23.6837 19.4472L24.9947 18.7186L25.9841 20.1759L24.6979 20.8543L23.6837 19.4472ZM26.083 22.7638L25.1678 21.4824L26.4541 20.8291L27.3445 22.1608L26.083 22.7638ZM27.9134 21.9095L26.9735 20.4774L28.3834 19.7487L29.2986 21.2312L27.9134 21.9095ZM20.2208 27.8141L21.6307 28.8442L20.7403 29.9498L19.3304 28.9699L20.2208 27.8141ZM18.2173 30.5528L19.0088 29.4975L20.3445 30.402L19.553 31.407L18.2173 30.5528ZM21.3587 32.5377L20.1466 31.7839L20.9382 30.804L22.1502 31.6332L21.3587 32.5377ZM22.5212 31.206L21.2597 30.3266L22.1254 29.2211L23.4117 30.1508L22.5212 31.206ZM35.8534 11.5075H33.8746V9.37186H35.8534V11.5075ZM35.8534 8.39196H33.8746V6.28141H35.8534V8.39196ZM38.8216 11.5578H36.7191V9.32161H38.8216V11.5578ZM38.8216 8.46734H36.7191V6.23116H38.8216V8.46734ZM51.1396 22.0352L51.9806 23.1407L50.6696 24.0452L49.8286 23.0151L51.1396 22.0352ZM48.1466 24.2462L49.3339 23.3668L50.1502 24.397L48.9629 25.2261L48.1466 24.2462ZM50.076 26.4824L49.3339 25.603L50.4717 24.8241L51.2138 25.7538L50.076 26.4824ZM51.758 25.402L51.0159 24.4472L52.2774 23.593L53.0194 24.598L51.758 25.402Z"/>
</mask>
<path d="M51.1643 18.3668L51.0654 18.191C50.0018 18.8442 48.9629 19.5729 47.9488 20.4271C45.7226 22.3116 43.8675 24.5477 42.4329 26.9849C45.1042 21.5578 48.3693 17.3367 52.0053 14.8241C49.4576 13.5427 46.9594 11.3568 44.659 8.24121L44.5353 8.09045C43.917 9.44724 43.3481 10.9296 42.8286 12.5126C40.924 18.3417 39.9346 24.8744 39.811 31.3317C39.9594 20.3518 41.3198 11.0804 43.8428 4.97487C41.6661 4.54774 39.341 2.96482 36.8922 0.150754L36.8428 0.0753769L36.7438 0C36.7438 0.0502513 36.7438 0.100503 36.7438 0.175879L36.6696 0.251256C33.8251 3.96985 31.0548 6.13065 28.3834 6.83417C31.9452 14.196 34.2951 25.603 35.2845 39.2211C34.6661 31.206 32.9594 23.191 30.1643 16.1055C29.4223 14.1709 28.606 12.3869 27.7403 10.7538L27.6166 10.9548C24.97 15.0251 22.0512 17.9397 18.9594 19.7487C23.659 22.5628 28.0124 27.5377 31.7226 34.0452C29.7686 31.1307 27.3445 28.5176 24.4011 26.3568C23.1148 25.402 21.7544 24.5729 20.3693 23.8442L20.2456 24.0452C17.5 28.3166 14.2102 31.9096 10.5 34.799C19.3799 34.1709 28.1113 36.6332 35.4576 41.5578C36.5954 33.995 37.288 26.1055 37.4611 18.3166C38.0053 23.3417 38.7721 28.392 39.811 33.2161C45.4753 28.8693 52.3516 26.407 59.5247 26.4322C56.3834 24.3216 53.5636 21.6332 51.1643 18.3668ZM46.2915 18.5678L45.03 17.9397L45.9452 16.608L47.2315 17.2613L46.2915 18.5678ZM48.6908 15.2261L47.6519 16.6583L46.3657 15.9548L47.3799 14.4975L48.6908 15.2261ZM45.3516 13.2915L46.811 14.0955L45.7721 15.6784L44.3375 14.9246L45.3516 13.2915ZM43.9664 15.5276L45.4011 16.2563L44.4364 17.6884L43.0512 17.0101L43.9664 15.5276ZM27.023 17.5377L28.0371 19.1709L26.6025 19.9246L25.5636 18.3417L27.023 17.5377ZM23.6837 19.4472L24.9947 18.7186L25.9841 20.1759L24.6979 20.8543L23.6837 19.4472ZM26.083 22.7638L25.1678 21.4824L26.4541 20.8291L27.3445 22.1608L26.083 22.7638ZM27.9134 21.9095L26.9735 20.4774L28.3834 19.7487L29.2986 21.2312L27.9134 21.9095ZM20.2208 27.8141L21.6307 28.8442L20.7403 29.9498L19.3304 28.9699L20.2208 27.8141ZM18.2173 30.5528L19.0088 29.4975L20.3445 30.402L19.553 31.407L18.2173 30.5528ZM21.3587 32.5377L20.1466 31.7839L20.9382 30.804L22.1502 31.6332L21.3587 32.5377ZM22.5212 31.206L21.2597 30.3266L22.1254 29.2211L23.4117 30.1508L22.5212 31.206ZM35.8534 11.5075H33.8746V9.37186H35.8534V11.5075ZM35.8534 8.39196H33.8746V6.28141H35.8534V8.39196ZM38.8216 11.5578H36.7191V9.32161H38.8216V11.5578ZM38.8216 8.46734H36.7191V6.23116H38.8216V8.46734ZM51.1396 22.0352L51.9806 23.1407L50.6696 24.0452L49.8286 23.0151L51.1396 22.0352ZM48.1466 24.2462L49.3339 23.3668L50.1502 24.397L48.9629 25.2261L48.1466 24.2462ZM50.076 26.4824L49.3339 25.603L50.4717 24.8241L51.2138 25.7538L50.076 26.4824ZM51.758 25.402L51.0159 24.4472L52.2774 23.593L53.0194 24.598L51.758 25.402Z" fill="#94CEEE" stroke="black" stroke-opacity="0.15" stroke-width="0.2" mask="url(#path-2-inside-1_10_149)"/>
</g>
<path d="M12.9473 54.576L10.7513 63H8.26733L6.92333 57.456L5.53133 63H3.04733L0.911328 54.576H3.10733L4.31933 60.708L5.81933 54.576H8.07533L9.51533 60.708L10.7393 54.576H12.9473ZM17.0244 63.096C16.3684 63.096 15.7764 62.956 15.2484 62.676C14.7284 62.396 14.3164 61.996 14.0124 61.476C13.7164 60.956 13.5684 60.348 13.5684 59.652C13.5684 58.964 13.7204 58.36 14.0244 57.84C14.3284 57.312 14.7444 56.908 15.2724 56.628C15.8004 56.348 16.3924 56.208 17.0484 56.208C17.7044 56.208 18.2964 56.348 18.8244 56.628C19.3524 56.908 19.7684 57.312 20.0724 57.84C20.3764 58.36 20.5284 58.964 20.5284 59.652C20.5284 60.34 20.3724 60.948 20.0604 61.476C19.7564 61.996 19.3364 62.396 18.8004 62.676C18.2724 62.956 17.6804 63.096 17.0244 63.096ZM17.0244 61.32C17.4164 61.32 17.7484 61.176 18.0204 60.888C18.3004 60.6 18.4404 60.188 18.4404 59.652C18.4404 59.116 18.3044 58.704 18.0324 58.416C17.7684 58.128 17.4404 57.984 17.0484 57.984C16.6484 57.984 16.3164 58.128 16.0524 58.416C15.7884 58.696 15.6564 59.108 15.6564 59.652C15.6564 60.188 15.7844 60.6 16.0404 60.888C16.3044 61.176 16.6324 61.32 17.0244 61.32ZM69.0501 59.544C69.0501 59.736 69.0381 59.936 69.0141 60.144H64.3701C64.4021 60.56 64.5341 60.88 64.7661 61.104C65.0061 61.32 65.2981 61.428 65.6421 61.428C66.1541 61.428 66.5101 61.212 66.7101 60.78H68.8941C68.7821 61.22 68.5781 61.616 68.2821 61.968C67.9941 62.32 67.6301 62.596 67.1901 62.796C66.7501 62.996 66.2581 63.096 65.7141 63.096C65.0581 63.096 64.4741 62.956 63.9621 62.676C63.4501 62.396 63.0501 61.996 62.7621 61.476C62.4741 60.956 62.3301 60.348 62.3301 59.652C62.3301 58.956 62.4701 58.348 62.7501 57.828C63.0381 57.308 63.4381 56.908 63.9501 56.628C64.4621 56.348 65.0501 56.208 65.7141 56.208C66.3621 56.208 66.9381 56.344 67.4421 56.616C67.9461 56.888 68.3381 57.276 68.6181 57.78C68.9061 58.284 69.0501 58.872 69.0501 59.544ZM66.9501 59.004C66.9501 58.652 66.8301 58.372 66.5901 58.164C66.3501 57.956 66.0501 57.852 65.6901 57.852C65.3461 57.852 65.0541 57.952 64.8141 58.152C64.5821 58.352 64.4381 58.636 64.3821 59.004H66.9501Z" fill="#8D8D8D"/>
<path d="M23.669 57.42C23.909 57.052 24.209 56.764 24.569 56.556C24.929 56.34 25.329 56.232 25.769 56.232V58.404H25.205C24.693 58.404 24.309 58.516 24.053 58.74C23.797 58.956 23.669 59.34 23.669 59.892V63H21.617V56.304H23.669V57.42ZM28.8019 54.12V63H26.7499V54.12H28.8019ZM29.8809 59.64C29.8809 58.952 30.0089 58.348 30.2649 57.828C30.5289 57.308 30.8849 56.908 31.3329 56.628C31.7809 56.348 32.2809 56.208 32.8329 56.208C33.2729 56.208 33.6729 56.3 34.0329 56.484C34.4009 56.668 34.6889 56.916 34.8969 57.228V54.12H36.9489V63H34.8969V62.04C34.7049 62.36 34.4289 62.616 34.0689 62.808C33.7169 63 33.3049 63.096 32.8329 63.096C32.2809 63.096 31.7809 62.956 31.3329 62.676C30.8849 62.388 30.5289 61.984 30.2649 61.464C30.0089 60.936 29.8809 60.328 29.8809 59.64ZM34.8969 59.652C34.8969 59.14 34.7529 58.736 34.4649 58.44C34.1849 58.144 33.8409 57.996 33.4329 57.996C33.0249 57.996 32.6769 58.144 32.3889 58.44C32.1089 58.728 31.9689 59.128 31.9689 59.64C31.9689 60.152 32.1089 60.56 32.3889 60.864C32.6769 61.16 33.0249 61.308 33.4329 61.308C33.8409 61.308 34.1849 61.16 34.4649 60.864C34.7529 60.568 34.8969 60.164 34.8969 59.652ZM50.0255 54.576L47.8295 63H45.3455L44.0015 57.456L42.6095 63H40.1255L37.9895 54.576H40.1855L41.3975 60.708L42.8975 54.576H45.1535L46.5935 60.708L47.8175 54.576H50.0255ZM52.0865 55.608C51.7265 55.608 51.4305 55.504 51.1985 55.296C50.9745 55.08 50.8625 54.816 50.8625 54.504C50.8625 54.184 50.9745 53.92 51.1985 53.712C51.4305 53.496 51.7265 53.388 52.0865 53.388C52.4385 53.388 52.7265 53.496 52.9505 53.712C53.1825 53.92 53.2985 54.184 53.2985 54.504C53.2985 54.816 53.1825 55.08 52.9505 55.296C52.7265 55.504 52.4385 55.608 52.0865 55.608ZM53.1065 56.304V63H51.0545V56.304H53.1065ZM54.1856 59.64C54.1856 58.952 54.3136 58.348 54.5696 57.828C54.8336 57.308 55.1896 56.908 55.6376 56.628C56.0856 56.348 56.5856 56.208 57.1376 56.208C57.5776 56.208 57.9776 56.3 58.3376 56.484C58.7056 56.668 58.9936 56.916 59.2016 57.228V54.12H61.2536V63H59.2016V62.04C59.0096 62.36 58.7336 62.616 58.3736 62.808C58.0216 63 57.6096 63.096 57.1376 63.096C56.5856 63.096 56.0856 62.956 55.6376 62.676C55.1896 62.388 54.8336 61.984 54.5696 61.464C54.3136 60.936 54.1856 60.328 54.1856 59.64ZM59.2016 59.652C59.2016 59.14 59.0576 58.736 58.7696 58.44C58.4896 58.144 58.1456 57.996 57.7376 57.996C57.3296 57.996 56.9816 58.144 56.6936 58.44C56.4136 58.728 56.2736 59.128 56.2736 59.64C56.2736 60.152 56.4136 60.56 56.6936 60.864C56.9816 61.16 57.3296 61.308 57.7376 61.308C58.1456 61.308 58.4896 61.16 58.7696 60.864C59.0576 60.568 59.2016 60.164 59.2016 59.652Z" fill="#94CEEE"/>
<defs>
<clipPath id="clip0_10_149">
<rect width="49" height="45" fill="white" transform="translate(10.5)"/>
</clipPath>
</defs>
</svg>
